<svg height="64mm" viewBox="0 0 64 64" width="64mm" xmlns="http://www.w3.org/2000/svg">
    <path d="m34.230769 3-17.846154 16.571429h-13.384615v24.857142h13.384615l17.846154 16.571429zm22.307693 4.1428571c-2.471693 0-4.461539 1.8477143-4.461539 4.1428569v41.428572c0 2.295143 1.989846 4.142857 4.461539 4.142857 2.471692 0 4.461538-1.847714 4.461538-4.142857v-41.428572c0-2.2951426-1.989846-4.1428569-4.461538-4.1428569zm-13.384616 8.2857139c-2.471692 0-4.461538 1.847715-4.461538 4.142858v24.857142c0 2.295143 1.989846 4.142858 4.461538 4.142858s4.461539-1.847715 4.461539-4.142858v-24.857142c0-2.295143-1.989847-4.142858-4.461539-4.142858z" fill="#dfdfdf" stroke-width="4.29926"/>
</svg>
