<svg height="64mm" viewBox="0 0 64 64" width="64mm" xmlns="http://www.w3.org/2000/svg">
    <path d="m8.3317706 3-5.25625 5.9391744 10.7088544 10.6322536h-10.784375v24.857144h11.6l15.466667 16.571428v-25.269809l7.733333 7.670758v1.027623c.213015-.124866.398421-.29199.604167-.428852l6.585416 6.537945c-2.108401 1.86707-4.523589 3.336948-7.189583 4.248049v6.214286c4.274798-1.134127 8.141842-3.331752 11.373437-6.30329l6.494793 6.30329 5.33177-5.939176-6.691146-6.570309-4.266925-4.231867-6.502346-6.457029-5.739583-5.688337-7.733333-7.678851-.234115-.234656-10.15-10.07394zm21.7348964 0-4.916406 5.2675782 4.916406 4.8710938zm7.733333 0v6.2142858c8.970667 3.0657142 15.466667 12.1385722 15.466667 22.7857142 0 1.319943-.102506 2.612731-.294524 3.875837l4.863543 4.830635c.78522-2.753724 1.230981-5.668514 1.230981-8.706472 0-14.085714-9.086667-25.7685714-21.266667-29zm0 16.571428v1.246094l5.95104 5.906808c-1.1491-3.056089-3.253-5.585948-5.95104-7.152902z" fill="#dfdfdf" opacity=".35" stroke-width="4.00238"/>
</svg>
