<svg height="64mm" viewBox="0 0 64 64" width="64mm" xmlns="http://www.w3.org/2000/svg">
    <path d="m34.461538 0-19.692308 18.285715h-14.76923v27.42857h14.76923l19.692308 18.285715zm24.615386 4.5714285c-2.727386 0-4.923078 2.0388572-4.923078 4.5714285v45.714286c0 2.532572 2.195692 4.571429 4.923078 4.571429 2.727384 0 4.923076-2.038857 4.923076-4.571429v-45.714286c0-2.5325713-2.195692-4.5714285-4.923076-4.5714285zm-14.769232 9.1428565c-2.727384 0-4.923076 2.038858-4.923076 4.57143v27.42857c0 2.532572 2.195692 4.57143 4.923076 4.57143s4.923078-2.038858 4.923078-4.57143v-27.42857c0-2.532572-2.195694-4.57143-4.923078-4.57143z" fill="#dfdfdf" stroke-width="4.74401"/>
</svg>
