<svg height="64mm" viewBox="0 0 64 64" width="64mm" xmlns="http://www.w3.org/2000/svg">
    <path d="m5.8833331 0-5.8 6.5535718 11.8166669 11.7321422h-11.9v27.428572h12.8l17.066667 18.285714v-27.883927l8.533333 8.464285v1.133928c.235051-.137783.439637-.322196.666667-.473216l7.266666 7.214284c-2.326511 2.060216-4.991547 3.68215-7.933333 4.687503v6.857143c4.717018-1.25145 8.984102-3.676416 12.549999-6.955354l7.166669 6.955354 5.883332-6.553574-7.383334-7.249996-4.708331-4.669646-7.175002-7.124998-6.333333-6.276785-8.533333-8.473215-.258334-.258931-11.2-11.116072zm23.9833339 0-5.425 5.8125001 5.425 5.3749999zm8.533333 0v6.857143c9.898667 3.382857 17.066667 13.394287 17.066667 25.142857 0 1.456489-.11311 2.883014-.324992 4.276786l5.366668 5.330356c.86645-3.038592 1.358324-6.254912 1.358324-9.607142 0-15.542857-10.026667-28.4342857-23.466667-32zm0 18.285714v1.375l6.566665 6.517857c-1.267973-3.372236-3.589517-6.163805-6.566665-7.892857z" fill="#dfdfdf" opacity=".35" stroke-width="4.20431"/>
</svg>
