<svg height="64mm" viewBox="0 0 64 64" width="64mm" xmlns="http://www.w3.org/2000/svg">
    <g fill="#99f" stroke-width="3.53846" transform="matrix(.86956522 0 0 .86956522 11.799331 11.130435)">
        <path d="m23.230769 1c1.960308 0 3.538462 1.5781538 3.538462 3.5384615v17.6923075c0 1.960308-1.578154 3.538462-3.538462 3.538462-1.960307 0-3.538461-1.578154-3.538461-3.538462v-17.6923075c0-1.9603077 1.578154-3.5384615 3.538461-3.5384615z"/>
        <path d="m33.846154 8.0769231c-1.953231 0-3.538462 1.5841692-3.538462 3.5384619 0 1.004569.360923 2.04063 1.164154 2.646769 3.641077 2.749384 5.905692 6.945292 5.912769 11.507077 0 7.816461-6.337384 14.153846-14.153846 14.153846-7.816815 0-14.1538459-6.337385-14.1538459-14.153846.00849-4.562846 2.2787689-8.756631 5.9159539-11.510262.8004-.605784 1.158846-1.641138 1.160969-2.643584 0-1.9542927-1.584169-3.5384619-3.538461-3.5384619-1.008108 0-1.866893.5346615-2.6400465 1.1818461-4.9283693 4.1251388-7.9530462 10.0835538-7.9753385 16.5104618 0 11.726461 9.505369 21.230769 21.230769 21.230769 11.726462 0 21.230769-9.504308 21.230769-21.230769-.014153-6.483169-3.053692-12.525446-8.088923-16.6314772-.743077-.6072-1.581692-1.0608307-2.526461-1.0608307z"/>
    </g>
</svg>
