<svg height="64" width="64" xmlns="http://www.w3.org/2000/svg">
    <g fill="#dfdfdf" stroke-width="3.28571" transform="matrix(.86956522 0 0 .86956522 10.260869 13.118013)">
        <path d="m34.857143 11.857143 13.142857 9.857143-13.142857 9.857143v-6.571429h-13.142857v-6.571429h13.142857z"/>
        <path d="m21.714286 2a19.714286 19.714286 0 0 0 -19.714286 19.714286 19.714286 19.714286 0 0 0 19.714286 19.714285 19.714286 19.714286 0 0 0 13.931428-5.782857l-4.646-4.646a13.142857 13.142857 0 0 1 -9.285428 3.857429 13.142857 13.142857 0 0 1 -13.1428574-13.142857 13.142857 13.142857 0 0 1 13.1428574-13.1428574 13.142857 13.142857 0 0 1 9.285428 3.8567714l4.646-4.646a19.714286 19.714286 0 0 0 -13.931428-5.7822z"/>
    </g>
</svg>
