<svg height="64mm" viewBox="0 0 64 64" width="64mm" xmlns="http://www.w3.org/2000/svg">
    <g fill="#dfdfdf" stroke-width="3.33333">
        <path d="m32 12a20 20 0 0 0 -20 20 20 20 0 0 0 20 20 20 20 0 0 0 20-20 20 20 0 0 0 -20-20zm0 6.666667a13.333333 13.333333 0 0 1 13.333333 13.333333 13.333333 13.333333 0 0 1 -13.333333 13.333333 13.333333 13.333333 0 0 1 -13.333333-13.333333 13.333333 13.333333 0 0 1 13.333333-13.333333z"/>
        <path d="m25.333333 28.666667h13.333334c1.846666 0 3.333333 1.486666 3.333333 3.333333s-1.486667 3.333333-3.333333 3.333333h-13.333334c-1.846666 0-3.333333-1.486666-3.333333-3.333333s1.486667-3.333333 3.333333-3.333333z"/>
    </g>
</svg>
